<svg xmlns="http://www.w3.org/2000/svg" x="0px" y="0px" width="100" height="100" viewBox="0 0 64 64">
<linearGradient id="SVGID_1__iTImR5kGwneB_gr1" x1="32" x2="32" y1="736.083" y2="781.676" gradientTransform="translate(0 -726)" gradientUnits="userSpaceOnUse"><stop offset="0" stop-color="#1a6dff"></stop><stop offset="1" stop-color="#c822ff"></stop></linearGradient><path fill="url(#SVGID_1__iTImR5kGwneB_gr1)" d="M50,56H14c-2.76,0-5-2.24-5-5V15c0-2.76,2.24-5,5-5h36c2.76,0,5,2.24,5,5v36C55,53.76,52.76,56,50,56z M14,12	c-1.65,0-3,1.35-3,3v36c0,1.65,1.35,3,3,3h36c1.65,0,3-1.35,3-3V15c0-1.65-1.35-3-3-3H14z"></path><linearGradient id="SVGID_2__iTImR5kGwneB_gr2" x1="23.5" x2="23.5" y1="747" y2="770" gradientTransform="translate(0 -726)" gradientUnits="userSpaceOnUse"><stop offset="0" stop-color="#6dc7ff"></stop><stop offset="1" stop-color="#e6abff"></stop></linearGradient><path fill="url(#SVGID_2__iTImR5kGwneB_gr2)" d="M26,21h-5c-2.21,0-4,1.79-4,4v18c0,0.55,0.45,1,1,1h2c0.55,0,1-0.45,1-1v-7h5v7c0,0.55,0.45,1,1,1h2	c0.55,0,1-0.45,1-1V25C30,22.79,28.21,21,26,21z M25,32h-3c-0.55,0-1-0.45-1-1v-5c0-0.55,0.45-1,1-1h3c0.55,0,1,0.45,1,1v5	C26,31.55,25.55,32,25,32z"></path><linearGradient id="SVGID_3__iTImR5kGwneB_gr3" x1="40.004" x2="40.004" y1="-584" y2="-602" gradientTransform="matrix(1 0 0 -1 0 -558)" gradientUnits="userSpaceOnUse"><stop offset="0" stop-color="#6dc7ff"></stop><stop offset="1" stop-color="#e6abff"></stop></linearGradient><path fill="url(#SVGID_3__iTImR5kGwneB_gr3)" d="M44,26c-0.55,0-1,0.45-1,1v13h0c-0.17,0.01-0.43,0.01-0.74,0.01c-1.68,0-2.99-0.14-3.51-0.38	c-1.77-0.83-1.76-2.77-1.75-2.99V27c0-0.55-0.45-1-1-1h-1.98c-0.55,0-1,0.44-1,0.99c-0.01,1.95-0.02,6.44,0.01,10.26	c0.05,6.74,5.64,6.75,8.98,6.75h0.34c1.86,0,3.21-0.38,4.02-0.71L47,43.04v-0.68V27c0-0.55-0.45-1-1-1H44z"></path>
</svg>