<svg xmlns="http://www.w3.org/2000/svg" x="0px" y="0px" width="100" height="100" viewBox="0 0 48 48">
<linearGradient id="JfUfMwY7YaGnEXMrORrQJa_DpIYI1a8DczY_gr1" x1="8.525" x2="38.525" y1="6.794" y2="41.262" gradientUnits="userSpaceOnUse"><stop offset="0" stop-color="#32de9f"></stop><stop offset="1" stop-color="#11bf68"></stop></linearGradient><path fill="url(#JfUfMwY7YaGnEXMrORrQJa_DpIYI1a8DczY_gr1)" d="M37.619,27.263l-4.455-4.455C36.5,22.048,39,19.063,39,15.5c0-4.136-3.364-7.5-7.5-7.5H15	c-4,0-7,3.704-7,7.5v17c0,4.136,3.364,7.5,7.5,7.5c3.711,0,6.792-2.711,7.388-6.256l4.125,4.125	c1.462,1.462,3.383,2.193,5.303,2.193s3.841-0.731,5.303-2.193C40.543,34.945,40.543,30.187,37.619,27.263z M35,15.5	c0,1.93-1.57,3.5-3.5,3.5H23v-3.5c0-1.264-0.317-2.454-0.872-3.5H31.5C33.43,12,35,13.57,35,15.5z M19,32.5c0,1.93-1.57,3.5-3.5,3.5	S12,34.43,12,32.5v-17c0-1.93,1.57-3.5,3.5-3.5s3.5,1.57,3.5,3.5V32.5z M34.791,35.041c-1.365,1.364-3.585,1.364-4.95,0L23,28.2V23	h4.7l7.091,7.091C36.156,31.456,36.156,33.676,34.791,35.041z"></path>
</svg>